<?xml version="1.0" encoding="UTF-8"?>
<svg width="533px" height="175px" viewBox="0 0 533 175" version="1.1" xmlns="http://www.w3.org/2000/svg" xmlns:xlink="http://www.w3.org/1999/xlink">
    <title>lockup vector</title>
    <g id="lockup-vector" stroke="none" stroke-width="1" fill="none" fill-rule="evenodd">
        <g id="Group-2" transform="translate(61.500000, 47.000000)">
            <g id="Group">
                <path d="M117.674771,63.3880677 L117.674771,42.8451314 L129.97394,42.8451314 L141.076433,63.3880677 L145.530727,63.3880677 L134.095824,42.5792034 C137.419924,42.1359901 139.95732,40.8063502 141.708012,38.5902837 C143.458705,36.3742173 144.334051,33.4711702 144.334051,29.8811425 C144.334051,25.8035801 143.259259,22.6346051 141.109674,20.3742173 C138.96009,18.1138295 135.890838,16.9836355 131.901918,16.9836355 L131.901918,16.9836355 L113.685852,16.9836355 L113.685852,63.3880677 L117.674771,63.3880677 Z M131.901918,39.4545497 L117.674771,39.4545497 L117.674771,20.5071813 L131.901918,20.5071813 C134.561198,20.5071813 136.588899,21.2495635 137.985021,22.7343281 C139.381142,24.2190926 140.079203,26.0916688 140.079203,28.3520566 L140.079203,28.3520566 L140.079203,31.5431923 C140.079203,33.8479015 139.381142,35.7426383 137.985021,37.2274029 C136.588899,38.7121674 134.561198,39.4545497 131.901918,39.4545497 L131.901918,39.4545497 Z M189.325741,63.3880677 L189.325741,59.864522 L166.190007,59.864522 L166.190007,41.5819735 L188.195547,41.5819735 L188.195547,38.0584278 L166.190007,38.0584278 L166.190007,20.5071813 L189.325741,20.5071813 L189.325741,16.9836355 L162.201087,16.9836355 L162.201087,63.3880677 L189.325741,63.3880677 Z M210.583359,63.3880677 L210.583359,41.5819735 L231.591669,41.5819735 L231.591669,38.0584278 L210.583359,38.0584278 L210.583359,20.5071813 L233.120755,20.5071813 L233.120755,16.9836355 L206.594439,16.9836355 L206.594439,63.3880677 L210.583359,63.3880677 Z M273.857597,63.3880677 L273.857597,59.864522 L253.381142,59.864522 L253.381142,16.9836355 L249.392223,16.9836355 L249.392223,63.3880677 L273.857597,63.3880677 Z M315.392223,63.3880677 L315.392223,59.864522 L292.256489,59.864522 L292.256489,41.5819735 L314.262029,41.5819735 L314.262029,38.0584278 L292.256489,38.0584278 L292.256489,20.5071813 L315.392223,20.5071813 L315.392223,16.9836355 L288.267569,16.9836355 L288.267569,63.3880677 L315.392223,63.3880677 Z M348.350672,64.1858516 C352.117985,64.1858516 355.331281,63.2551037 357.990561,61.3936078 C360.649841,59.532112 362.666461,57.0057962 364.040422,53.8146605 L364.040422,53.8146605 L360.782805,51.8866826 C359.763414,54.5459624 358.212167,56.6623059 356.129065,58.2357131 C354.045962,59.8091203 351.453165,60.5958239 348.350672,60.5958239 C344.007181,60.5958239 340.6166,59.0888987 338.178926,56.0750483 C335.741253,53.0611979 334.522417,48.6955469 334.522417,42.9780954 L334.522417,42.9780954 L334.522417,37.7260178 C334.522417,31.964245 335.741253,27.532112 338.178926,24.4296189 C340.6166,21.3271259 344.007181,19.7758793 348.350672,19.7758793 C351.275879,19.7758793 353.768954,20.5182616 355.829896,22.0030261 C357.890838,23.4877907 359.431004,25.4933308 360.450395,28.0196466 L360.450395,28.0196466 L363.708012,26.0916688 C362.28973,23.033497 360.30635,20.6179846 357.757874,18.8451314 C355.209397,17.0722782 352.073663,16.1858516 348.350672,16.1858516 C342.588899,16.1858516 338.134605,18.2467934 334.987791,22.3686771 C331.840976,26.4905608 330.267569,32.4739403 330.267569,40.3188156 C330.267569,48.2080123 331.840976,54.1581508 334.987791,58.1692311 C338.134605,62.1803114 342.588899,64.1858516 348.350672,64.1858516 Z M393.940699,63.3880677 L393.940699,20.5071813 L409.497486,20.5071813 L409.497486,16.9836355 L374.394993,16.9836355 L374.394993,20.5071813 L389.95178,20.5071813 L389.95178,63.3880677 L393.940699,63.3880677 Z" id="REFLECT-Copy-7" fill="#2C2D2F" fill-rule="nonzero"></path>
                <path d="M80.1858516,0.185851616 L80.1858516,80.1858516 L0.185851616,80.1858516 L0.185851616,0.185851616 L80.1858516,0.185851616 Z M69.6568516,5.54885162 L5.54972925,5.54972925 L5.54885162,70.8438516 L20.2744401,55.3573496 C17.0621894,51.1479549 15.1544226,45.8896946 15.1544226,40.1858516 C15.1544226,33.1444836 18.0618189,26.7821745 22.7416285,22.2339069 L22.8454409,21.9486677 L23.1732551,21.8242164 C27.6387165,17.6848793 33.6167741,15.1544226 40.1858516,15.1544226 C45.9681089,15.1544226 51.2924477,17.1150044 55.5303607,20.4076606 L69.6568516,5.54885162 Z M52.7377152,25.0437358 L25.4068379,53.1628825 C29.0113117,57.2646189 34.2962602,59.8534029 40.1858516,59.8534029 C51.0479403,59.8534029 59.8534029,51.0479403 59.8534029,40.1858516 C59.8534029,34.0952735 57.0849157,28.6513103 52.7377152,25.0437358 Z" id="Combined-Shape-Copy-12" fill="#23A2EC"></path>
            </g>
        </g>
    </g>
</svg>