<?xml version="1.0" encoding="UTF-8"?>
<svg width="282px" height="265px" viewBox="0 0 282 265" version="1.1" xmlns="http://www.w3.org/2000/svg" xmlns:xlink="http://www.w3.org/1999/xlink">
    <title>logo vector</title>
    <g id="logo-vector" stroke="none" stroke-width="1" fill="none" fill-rule="evenodd">
        <circle id="Oval" fill="#151515" cx="141" cy="132.5" r="100.860106"></circle>
        <path d="M191,82.5 L191,182.5 L91,182.5 L91,82.5 L191,82.5 Z M177.839,89.204 L97.704847,89.204847 L97.704,170.823 L116.110977,151.464689 C112.095518,146.202892 109.710714,139.629947 109.710714,132.5 C109.710714,123.698518 113.344771,115.745815 119.194267,110.06051 L119.324487,109.70352 L119.735012,109.547254 C125.316757,104.373498 132.789025,101.210714 141,101.210714 C148.227915,101.210714 154.883418,103.661505 160.180842,107.777421 L177.839,89.204 Z M156.68982,113.572348 L122.525479,148.720431 C127.031088,153.848098 133.6376,157.084439 141,157.084439 C154.577611,157.084439 165.584439,146.077611 165.584439,132.5 C165.584439,124.886773 162.123826,118.081816 156.68982,113.572348 Z" id="Combined-Shape-Copy" fill="#23A2EC" fill-rule="nonzero"></path>
    </g>
</svg>